<svg width="326" height="130" viewBox="0 0 326 130" fill="none" xmlns="http://www.w3.org/2000/svg">
<g filter="url(#filter0_d_48_418)">
<path d="M39.3552 34.704C45.3179 34.704 50.0192 35.822 53.4592 38.058C56.8992 40.2367 58.6192 43.8773 58.6192 48.98C58.6192 51.216 58.2752 53.4807 57.5872 55.774C56.9566 58.0673 55.8386 60.1313 54.2332 61.966C52.6852 63.7433 50.5352 65.0333 47.7832 65.836L47.3532 65.406C49.1306 65.8073 50.8219 66.524 52.4272 67.556C54.0326 68.588 55.3512 69.9927 56.3832 71.77C57.4152 73.5473 57.9312 75.7833 57.9312 78.478C57.9312 81.9753 57.2432 84.9853 55.8672 87.508C54.5486 89.9733 52.7426 91.98 50.4492 93.528C48.2132 95.076 45.6619 96.2227 42.7952 96.968C39.9859 97.656 37.0906 98 34.1092 98H13.0392L20.7792 34.704H39.3552ZM37.2052 60.59C38.5812 60.59 39.7852 60.3607 40.8172 59.902C41.8492 59.4433 42.7092 58.8127 43.3972 58.01C44.0852 57.2073 44.6012 56.3187 44.9452 55.344C45.2892 54.3693 45.4612 53.366 45.4612 52.334C45.4612 50.3273 44.8019 48.8367 43.4832 47.862C42.1646 46.83 40.3872 46.314 38.1512 46.314H32.3032L30.4972 60.59H37.2052ZM34.5392 86.39C36.5459 86.39 38.3519 86.0747 39.9572 85.444C41.5626 84.8133 42.8526 83.8673 43.8272 82.606C44.8019 81.3447 45.2892 79.768 45.2892 77.876C45.2892 76.156 44.8019 74.8373 43.8272 73.92C42.9099 73.0027 41.7059 72.372 40.2152 72.028C38.7246 71.6267 37.1479 71.426 35.4852 71.426H29.2072L27.4012 86.39H34.5392ZM81.641 60.418L81.297 68.76C82.673 66.524 84.307 64.6607 86.199 63.17C88.1484 61.622 90.0977 60.4753 92.047 59.73C94.0537 58.9273 95.745 58.526 97.121 58.526L95.057 70.566C92.305 70.222 89.8397 70.6807 87.661 71.942C85.4823 73.2033 83.7337 74.866 82.415 76.93C81.0963 78.994 80.2937 81.1153 80.007 83.294L78.201 98H66.247L70.805 60.418H81.641ZM106.414 60.418H118.454L113.81 98H101.77L106.414 60.418ZM107.188 47.174C107.188 45.3393 107.819 43.7913 109.08 42.53C110.342 41.2687 112.004 40.638 114.068 40.638C115.502 40.638 116.935 41.068 118.368 41.928C119.802 42.7307 120.518 44.164 120.518 46.228C120.518 48.0053 119.888 49.5533 118.626 50.872C117.365 52.1333 115.702 52.764 113.638 52.764C112.205 52.764 110.772 52.3627 109.338 51.56C107.905 50.7 107.188 49.238 107.188 47.174ZM144.098 99.032C140.543 99.032 137.361 98.2007 134.552 96.538C131.743 94.8753 129.535 92.668 127.93 89.916C126.382 87.1067 125.608 84.068 125.608 80.8C125.608 78.1627 126.067 75.554 126.984 72.974C127.959 70.3367 129.392 67.9287 131.284 65.75C133.233 63.5713 135.613 61.8227 138.422 60.504C141.231 59.1853 144.471 58.526 148.14 58.526C151.179 58.526 153.873 59.0707 156.224 60.16C158.575 61.2493 160.381 62.568 161.642 64.116L159.578 66.868L164.05 30.146H176.004L167.662 98H155.622L156.568 90.69L157.17 93.27C155.049 94.8753 152.956 96.2513 150.892 97.398C148.885 98.4873 146.621 99.032 144.098 99.032ZM147.882 88.884C149.143 88.884 150.319 88.6833 151.408 88.282C152.555 87.8233 153.644 87.1927 154.676 86.39C155.708 85.53 156.654 84.4693 157.514 83.208L158.632 74.006C158.345 72.7447 157.772 71.684 156.912 70.824C156.052 69.9067 154.963 69.2187 153.644 68.76C152.383 68.244 150.949 67.986 149.344 67.986C147.108 67.986 145.13 68.4447 143.41 69.362C141.69 70.222 140.343 71.4833 139.368 73.146C138.451 74.7513 137.992 76.7007 137.992 78.994C137.992 81.0007 138.393 82.7493 139.196 84.24C139.999 85.7307 141.145 86.8773 142.636 87.68C144.127 88.4827 145.875 88.884 147.882 88.884ZM199.136 116.92C195.466 116.92 192.399 116.519 189.934 115.716C187.526 114.913 185.519 113.939 183.914 112.792C182.308 111.645 180.875 110.556 179.614 109.524L187.698 101.268C188.558 102.071 189.532 102.873 190.622 103.676C191.711 104.479 193.03 105.138 194.578 105.654C196.183 106.17 198.075 106.428 200.254 106.428C201.916 106.428 203.464 106.084 204.898 105.396C206.388 104.765 207.621 103.819 208.596 102.558C209.628 101.297 210.23 99.72 210.402 97.828L211.348 89.572L211.692 91.722C210.66 93.6713 208.997 95.3913 206.704 96.882C204.41 98.3153 201.486 99.032 197.932 99.032C194.492 99.032 191.367 98.2867 188.558 96.796C185.806 95.248 183.598 93.012 181.936 90.088C180.33 87.164 179.528 83.5807 179.528 79.338C179.528 77.2167 179.958 74.952 180.818 72.544C181.735 70.136 183.082 67.8713 184.86 65.75C186.694 63.6287 188.988 61.9087 191.74 60.59C194.492 59.214 197.731 58.526 201.458 58.526C204.783 58.526 207.564 59.0133 209.8 59.988C212.093 60.9053 213.756 62.052 214.788 63.428L213.842 65.234L215.906 60.418H227L222.012 99.978C221.61 103.647 220.32 106.743 218.142 109.266C215.963 111.789 213.211 113.681 209.886 114.942C206.56 116.261 202.977 116.92 199.136 116.92ZM203.608 68.33C201.486 68.33 199.68 68.7027 198.19 69.448C196.699 70.136 195.466 71.0533 194.492 72.2C193.574 73.2893 192.886 74.4647 192.428 75.726C192.026 76.9873 191.826 78.1913 191.826 79.338C191.826 81.4593 192.227 83.2653 193.03 84.756C193.89 86.1893 195.094 87.3073 196.642 88.11C198.19 88.8553 200.024 89.228 202.146 89.228C203.407 89.228 204.64 89.0273 205.844 88.626C207.048 88.1673 208.166 87.5367 209.198 86.734C210.287 85.874 211.262 84.8133 212.122 83.552L213.24 74.35C212.838 73.0887 212.179 72.028 211.262 71.168C210.402 70.2507 209.312 69.5627 207.994 69.104C206.732 68.588 205.27 68.33 203.608 68.33ZM256.046 88.798C257.192 88.798 258.282 88.5973 259.314 88.196C260.403 87.7947 261.492 87.3073 262.582 86.734L266.796 96.022C264.904 96.9393 262.897 97.656 260.776 98.172C258.712 98.688 256.705 98.946 254.756 98.946C250.628 98.946 247.016 98.258 243.92 96.882C240.881 95.4487 238.502 93.2987 236.782 90.432C235.062 87.508 234.202 83.8673 234.202 79.51C234.202 77.274 234.603 74.952 235.406 72.544C236.266 70.136 237.556 67.9 239.276 65.836C241.053 63.7147 243.346 61.9947 246.156 60.676C249.022 59.3573 252.462 58.698 256.476 58.698C258.654 58.698 260.804 58.9847 262.926 59.558C265.104 60.074 267.082 61.0487 268.86 62.482C270.694 63.858 272.242 65.8073 273.504 68.33C274.822 70.8527 275.74 74.1207 276.256 78.134L245.984 85.616L244.092 78.908L267.656 72.802L263.442 74.092C262.983 72.1427 262.066 70.652 260.69 69.62C259.371 68.588 257.823 68.072 256.046 68.072C253.695 68.072 251.803 68.5593 250.37 69.534C248.936 70.5087 247.876 71.77 247.188 73.318C246.557 74.866 246.242 76.4713 246.242 78.134C246.242 81.0007 246.758 83.208 247.79 84.756C248.879 86.304 250.169 87.3647 251.66 87.938C253.208 88.5113 254.67 88.798 256.046 88.798Z" fill="white"/>
</g>
<g filter="url(#filter1_d_48_418)">
<path d="M204.648 44C207.75 41.18 210.351 38.783 212.45 36.809C214.55 34.8037 216.242 33.1117 217.526 31.733C218.842 30.3543 219.829 29.1793 220.487 28.208C221.177 27.2367 221.647 26.3907 221.897 25.67C222.148 24.918 222.273 24.1817 222.273 23.461C222.273 22.4583 222.085 21.6437 221.709 21.017C221.333 20.359 220.801 19.8733 220.111 19.56C219.453 19.2153 218.654 19.043 217.714 19.043C216.962 19.043 216.289 19.1527 215.693 19.372C215.129 19.5913 214.644 19.9047 214.236 20.312C213.829 20.688 213.516 21.1423 213.296 21.675C213.077 22.1763 212.967 22.7247 212.967 23.32C212.967 24.1347 213.077 24.871 213.296 25.529C213.547 26.1557 213.876 26.7353 214.283 27.268L209.63 31.075C209.129 30.5423 208.612 29.8373 208.079 28.96C207.578 28.0827 207.155 27.0957 206.81 25.999C206.466 24.9023 206.293 23.8057 206.293 22.709C206.293 21.5497 206.528 20.3747 206.998 19.184C207.5 17.9933 208.252 16.8967 209.254 15.894C210.257 14.86 211.526 14.0297 213.061 13.403C214.628 12.7763 216.461 12.463 218.56 12.463C221.036 12.463 223.072 12.8703 224.67 13.685C226.268 14.4683 227.459 15.565 228.242 16.975C229.057 18.385 229.464 19.9987 229.464 21.816C229.464 23.1633 229.292 24.448 228.947 25.67C228.634 26.892 228.086 28.1297 227.302 29.383C226.55 30.6363 225.532 31.9837 224.247 33.425C222.994 34.8663 221.443 36.4957 219.594 38.313L216.398 37.42H227.96L227.161 44H204.648ZM245.535 43.953C244.031 43.953 242.559 43.7337 241.117 43.295C239.707 42.8563 238.438 42.1513 237.31 41.18C236.182 40.1773 235.274 38.8613 234.584 37.232C233.926 35.6027 233.597 33.5973 233.597 31.216C233.597 30.7147 233.644 29.9313 233.738 28.866C233.832 27.7693 234.02 26.516 234.302 25.106C234.616 23.696 235.101 22.2703 235.759 20.829C236.417 19.3563 237.279 17.9933 238.344 16.74C239.441 15.4867 240.82 14.484 242.48 13.732C244.141 12.9487 246.146 12.557 248.496 12.557C249.938 12.557 251.395 12.8233 252.867 13.356C254.34 13.8887 255.672 14.719 256.862 15.847C258.053 16.975 258.946 18.432 259.541 20.218C260.168 22.004 260.356 24.1503 260.105 26.657C259.98 29.0383 259.573 31.2787 258.883 33.378C258.225 35.446 257.301 37.279 256.11 38.877C254.92 40.475 253.447 41.7283 251.692 42.637C249.938 43.5143 247.885 43.953 245.535 43.953ZM246.381 37.467C247.603 37.467 248.622 37.091 249.436 36.339C250.282 35.587 250.956 34.6313 251.457 33.472C251.959 32.2813 252.319 31.0123 252.538 29.665C252.789 28.3177 252.914 27.0487 252.914 25.858C252.914 23.9467 252.648 22.5053 252.115 21.534C251.583 20.5627 250.893 19.9047 250.047 19.56C249.201 19.2153 248.324 19.043 247.415 19.043C246.193 19.043 245.159 19.419 244.313 20.171C243.499 20.923 242.825 21.8943 242.292 23.085C241.791 24.2443 241.415 25.4977 241.164 26.845C240.945 28.1923 240.835 29.4613 240.835 30.652C240.835 32.532 241.102 33.9733 241.634 34.976C242.198 35.9473 242.903 36.6053 243.749 36.95C244.595 37.2947 245.473 37.467 246.381 37.467ZM263.077 44C266.179 41.18 268.78 38.783 270.879 36.809C272.978 34.8037 274.67 33.1117 275.955 31.733C277.271 30.3543 278.258 29.1793 278.916 28.208C279.605 27.2367 280.075 26.3907 280.326 25.67C280.577 24.918 280.702 24.1817 280.702 23.461C280.702 22.4583 280.514 21.6437 280.138 21.017C279.762 20.359 279.229 19.8733 278.54 19.56C277.882 19.2153 277.083 19.043 276.143 19.043C275.391 19.043 274.717 19.1527 274.122 19.372C273.558 19.5913 273.072 19.9047 272.665 20.312C272.258 20.688 271.944 21.1423 271.725 21.675C271.506 22.1763 271.396 22.7247 271.396 23.32C271.396 24.1347 271.506 24.871 271.725 25.529C271.976 26.1557 272.305 26.7353 272.712 27.268L268.059 31.075C267.558 30.5423 267.041 29.8373 266.508 28.96C266.007 28.0827 265.584 27.0957 265.239 25.999C264.894 24.9023 264.722 23.8057 264.722 22.709C264.722 21.5497 264.957 20.3747 265.427 19.184C265.928 17.9933 266.68 16.8967 267.683 15.894C268.686 14.86 269.955 14.0297 271.49 13.403C273.057 12.7763 274.89 12.463 276.989 12.463C279.464 12.463 281.501 12.8703 283.099 13.685C284.697 14.4683 285.888 15.565 286.671 16.975C287.486 18.385 287.893 19.9987 287.893 21.816C287.893 23.1633 287.721 24.448 287.376 25.67C287.063 26.892 286.514 28.1297 285.731 29.383C284.979 30.6363 283.961 31.9837 282.676 33.425C281.423 34.8663 279.872 36.4957 278.023 38.313L274.827 37.42H286.389L285.59 44H263.077ZM288.454 37.185V37.138L311.343 12.463H311.39L308.993 32.015H312.706L312.095 37.185H308.382L307.536 44H300.674L301.52 37.185H288.454ZM302.977 27.503L298.512 32.626L297.995 32.015H302.131L302.742 27.221L302.977 27.503Z" fill="white"/>
</g>
<defs>
<filter id="filter0_d_48_418" x="0.639307" y="17.746" width="288.016" height="111.574" filterUnits="userSpaceOnUse" color-interpolation-filters="sRGB">
<feFlood flood-opacity="0" result="BackgroundImageFix"/>
<feColorMatrix in="SourceAlpha" type="matrix" values="0 0 0 0 0 0 0 0 0 0 0 0 0 0 0 0 0 0 127 0" result="hardAlpha"/>
<feOffset/>
<feGaussianBlur stdDeviation="6.2"/>
<feComposite in2="hardAlpha" operator="out"/>
<feColorMatrix type="matrix" values="0 0 0 0 0 0 0 0 0 0 0 0 0 0 0 0 0 0 0.1 0"/>
<feBlend mode="normal" in2="BackgroundImageFix" result="effect1_dropShadow_48_418"/>
<feBlend mode="normal" in="SourceGraphic" in2="effect1_dropShadow_48_418" result="shape"/>
</filter>
<filter id="filter1_d_48_418" x="192.248" y="0.0630131" width="132.858" height="56.337" filterUnits="userSpaceOnUse" color-interpolation-filters="sRGB">
<feFlood flood-opacity="0" result="BackgroundImageFix"/>
<feColorMatrix in="SourceAlpha" type="matrix" values="0 0 0 0 0 0 0 0 0 0 0 0 0 0 0 0 0 0 127 0" result="hardAlpha"/>
<feOffset/>
<feGaussianBlur stdDeviation="6.2"/>
<feComposite in2="hardAlpha" operator="out"/>
<feColorMatrix type="matrix" values="0 0 0 0 0 0 0 0 0 0 0 0 0 0 0 0 0 0 0.1 0"/>
<feBlend mode="normal" in2="BackgroundImageFix" result="effect1_dropShadow_48_418"/>
<feBlend mode="normal" in="SourceGraphic" in2="effect1_dropShadow_48_418" result="shape"/>
</filter>
</defs>
</svg>
