<?xml version="1.0" encoding="UTF-8"?><svg xmlns="http://www.w3.org/2000/svg" viewBox="0 0 216.74 160.52"><defs><style>.cls-1{fill:#ebb445;}.cls-2{fill:none;mix-blend-mode:multiply;opacity:.9;}.cls-3{fill:#bad558;}.cls-4{fill:#3f5d9f;}.cls-5{fill:#be3c86;}.cls-6{isolation:isolate;}.cls-7{fill:#d33735;}.cls-8{fill:#8cc347;}.cls-9{fill:#4ebed3;}.cls-10{fill:#de5e2f;}.cls-11{fill:#fbfbfb;}.cls-12{fill:#de3a78;}.cls-13{fill:#344391;}.cls-14{fill:#efc743;}.cls-15{fill:#47ade3;}</style></defs><g class="cls-6"><g id="_レイヤー_2"><g id="_レイヤー_1-2"><path class="cls-11" d="M10.6,159.95c-1.69,0-3.06-1.37-3.06-3.06v-27.32c0-1.69,1.37-3.06,3.06-3.06h13.25c3.97,0,7.15,1.03,9.2,2.98,1.63,1.56,2.43,3.43,2.43,5.73v.09c0,2.1-.62,3.8-1.89,5.2-.44.49-.65,1.14-.57,1.79.08.65.44,1.24.98,1.6,2.33,1.57,3.42,3.71,3.42,6.71v.09c0,2.78-1.28,9.23-13.17,9.23h-13.64ZM17.53,146.25c-1.25,0-2.26,1.01-2.26,2.26v2.51c0,1.25,1.01,2.26,2.26,2.26h6.71c4.37,0,5.29-1.89,5.29-3.47v-.09c0-.34-.06-1.22-.65-1.94-.04-.04-.07-.09-.1-.13-.32-.44-.79-.75-1.32-.88-.1-.02-.19-.05-.29-.08-.85-.29-1.92-.44-3.18-.44h-6.46ZM17.53,133.17c-1.25,0-2.26,1.01-2.26,2.26v2.23c0,1.25,1.01,2.26,2.26,2.26h4.67c2.25,0,3.47-.49,4.1-.9l.07-.04c.34-.21.61-.5.8-.85.38-.66.42-1.33.42-1.59v-.09c0-.53-.09-.99-.28-1.36-.06-.11-.12-.22-.2-.33-.86-1.18-2.92-1.59-4.42-1.59h-5.17Z"/><path class="cls-11" d="M68.47,159.95c-.99,0-1.93-.49-2.5-1.3l-5.88-8.36c-.42-.6-1.11-.96-1.85-.96h-2.39c-1.25,0-2.26,1.01-2.26,2.26v5.3c0,1.69-1.37,3.06-3.06,3.06h-1.81c-1.69,0-3.06-1.37-3.06-3.06v-27.32c0-1.69,1.37-3.06,3.06-3.06h13c4.36,0,7.91,1.18,10.24,3.4,1.38,1.32,3.03,3.71,3.03,7.68v.09c0,4.07-1.77,7.28-5.13,9.28-.54.32-.93.86-1.06,1.48-.13.62,0,1.26.38,1.78l3.5,4.88c.67.94.76,2.15.24,3.18-.53,1.03-1.57,1.66-2.72,1.66h-1.74ZM55.86,133.36c-1.25,0-2.26,1.01-2.26,2.26v4.74c0,1.25,1.01,2.26,2.26,2.26h5.37c4.23,0,5.74-2.35,5.74-4.56v-.09c0-4.27-4.51-4.61-5.89-4.61h-5.22Z"/><rect class="cls-11" x="83.77" y="126.51" width="7.93" height="33.44" rx="3.06" ry="3.06"/><path class="cls-11" d="M104.98,159.95c-1.69,0-3.06-1.37-3.06-3.06v-27.32c0-1.69,1.37-3.06,3.06-3.06h10.66c10.63,0,18.64,7.15,18.64,16.62v.09c0,9.53-8.02,16.72-18.64,16.72h-10.66ZM112.11,133.36c-1.25,0-2.26,1.01-2.26,2.26v15.21c0,1.25,1.01,2.26,2.26,2.26h3.53c6.2,0,10.37-3.93,10.37-9.77v-.09c0-5.81-4.26-9.87-10.37-9.87h-3.53Z"/><path class="cls-11" d="M159.23,160.52c-10.69,0-18.44-7.23-18.44-17.19v-.09c0-9.86,7.91-17.29,18.39-17.29,4.38,0,7.84.81,10.87,2.56.79.46,1.34,1.24,1.49,2.14.15.9-.11,1.82-.71,2.51l-.95,1.09c-.58.67-1.42,1.05-2.31,1.05-.57,0-1.13-.16-1.61-.46-2.15-1.34-4.25-1.91-7.02-1.91-5.44,0-9.87,4.57-9.87,10.2v.09c0,5.92,4.48,10.39,10.42,10.39,2.17,0,4.12-.4,5.79-1.2.79-.37,1.29-1.17,1.29-2.04v-.97c0-1.25-1.01-2.26-2.26-2.26h-2.39c-1.69,0-3.06-1.37-3.06-3.06v-.45c0-1.69,1.37-3.06,3.06-3.06h9.28c1.69,0,3.06,1.37,3.06,3.06v10.03c0,.99-.48,1.92-1.29,2.49-4.06,2.89-8.68,4.35-13.72,4.35Z"/><path class="cls-11" d="M186.64,159.95c-1.69,0-3.06-1.37-3.06-3.06v-27.32c0-1.69,1.37-3.06,3.06-3.06h20.42c1.69,0,3.06,1.37,3.06,3.06v.64c0,1.69-1.37,3.06-3.06,3.06h-13.34c-1.25,0-2.26,1.01-2.26,2.26v1.94c0,1.25,1.01,2.26,2.26,2.26h11.1c1.69,0,3.06,1.37,3.06,3.06v.64c0,1.69-1.37,3.06-3.06,3.06h-11.1c-1.25,0-2.26,1.01-2.26,2.26v2.18c0,1.25,1.01,2.26,2.26,2.26h13.59c1.69,0,3.06,1.37,3.06,3.06v.64c0,1.69-1.37,3.06-3.06,3.06h-20.67Z"/><path class="cls-2" d="M70.28,65.61c.82-.81,1.67-1.61,2.56-2.38,2.22-1.92,4.62-3.63,7.13-5.12-3.69-1.95-7.17-4.3-10.29-7l.6,14.49Z"/><path class="cls-2" d="M153.64,70.94c3.62-2.75,7.49-4.77,11.48-6.03-.52-.55-1.03-1.11-1.53-1.68-3.52-3.98-6.61-8.26-9.24-12.73l-1.47,21.03c.25-.2.5-.4.76-.59Z"/><path class="cls-2" d="M139.15,48.28c-4.16,3.83-8.61,7.07-13.13,9.62,3.62,2.21,7.09,4.93,10.29,8.12,1.23,1.23,2.39,2.49,3.48,3.79l1.66-23.75c-.74.74-1.51,1.48-2.3,2.21Z"/><path class="cls-2" d="M51.72,66.46c1.93.68,3.78,1.56,5.51,2.6l-.38-9.05c-1.57,2.27-3.29,4.42-5.14,6.45Z"/><path class="cls-8" d="M139.8,69.82c-1.09-1.3-2.25-2.57-3.48-3.79-3.2-3.19-6.67-5.92-10.29-8.12-7.45,4.21-15.08,6.56-21.87,6.56,7.47,0,16.01,4.08,22.86,10.9,6.47,6.45,10.47,14.41,10.9,21.55,0-.04,0-.09,0-.13l1.88-26.96Z"/><path class="cls-13" d="M210.15,73.12c-12.87,0-26.24-6.78-36.68-18.61-7.49-8.48-12.76-18.84-15.03-29.13-.77.41-1.57.75-2.4,1.04l-1.68,24.08c2.63,4.47,5.72,8.75,9.24,12.73.5.57,1.02,1.13,1.53,1.68,6.16-1.95,12.62-2.09,18.94-.34,3.51.98,5.56,4.61,4.58,8.12-.98,3.51-4.61,5.56-8.11,4.58-.24-.07-.48-.13-.71-.18,9.54,5.96,20,9.21,30.34,9.21,3.64,0,6.59-2.95,6.59-6.59s-2.95-6.59-6.59-6.59Z"/><path class="cls-4" d="M184.06,64.58c-6.31-1.76-12.77-1.61-18.94.34-3.99,1.26-7.86,3.28-11.48,6.03-.25.19-.51.39-.76.59l-1.78,25.47c.01.38.02.77.02,1.15,0-4.3,3.92-11.73,10.49-16.72,4.02-3.05,10.4-6.23,18.2-4.35.24.06.47.12.71.18,3.5.98,7.14-1.08,8.11-4.58.98-3.51-1.07-7.14-4.58-8.12Z"/><path class="cls-5" d="M25.95,76.92c-1.69-3.22-.45-7.21,2.77-8.9,4.04-2.12,8.61-3.25,13.2-3.25,3.41,0,6.71.6,9.79,1.69,1.85-2.03,3.56-4.18,5.14-6.45l-.99-23.77c-.77-.18-1.52-.42-2.25-.71-2.11,8.65-6.32,16.52-12.38,22.88-9.02,9.48-21.32,14.7-34.65,14.7-3.64,0-6.59,2.95-6.59,6.59s2.95,6.59,6.59,6.59c9.58,0,18.58-2.15,26.6-6.01-2.83.62-5.83-.68-7.24-3.37Z"/><path class="cls-12" d="M51.72,66.46c-3.08-1.09-6.38-1.69-9.79-1.69-4.59,0-9.16,1.12-13.2,3.25-3.22,1.69-4.46,5.68-2.77,8.9,1.41,2.69,4.41,3.99,7.24,3.37,7.03-3.39,13.3-8.09,18.53-13.83Z"/><path class="cls-3" d="M104.15,51.28c.68,0,1.34.1,1.96.3,2.68.83,4.63,3.34,4.63,6.29s-1.95,5.46-4.63,6.29c-.62.19-1.28.3-1.96.3,6.79,0,14.42-2.34,21.87-6.56-7.01-4.28-14.59-6.62-21.87-6.62Z"/><path class="cls-14" d="M69.67,51.11c3.12,2.69,6.61,5.05,10.29,7,7.42-4.4,15.89-6.83,24.19-6.83-12.52,0-27.2-8.01-33.13-18.84-.64.57-1.33,1.1-2.06,1.57l.71,17.11Z"/><path class="cls-1" d="M106.11,51.57c-.62-.19-1.28-.3-1.96-.29-8.3,0-16.76,2.45-24.18,6.85,7.63,4.03,16.14,6.34,24.19,6.33.68,0,1.34-.1,1.96-.3,2.68-.84,4.63-3.34,4.63-6.3s-1.95-5.46-4.63-6.29Z"/><path class="cls-7" d="M71.34,92.39c-.22-6.93-3.14-13.34-7.78-18.23-1.86-1.96-3.99-3.68-6.33-5.09-1.73-1.05-3.58-1.92-5.51-2.6-5.23,5.74-11.5,10.44-18.53,13.83.56-.12,1.12-.32,1.66-.6,2.19-1.15,4.57-1.74,7.08-1.74,8.66,0,16.26,7.13,16.26,15.25,0,3.64,2.95,6.59,6.59,6.59s6.59-2.95,6.59-6.59c0-.27-.01-.55-.02-.82Z"/><path class="cls-10" d="M79.97,58.11c-2.51,1.49-4.9,3.2-7.13,5.12-.89.77-1.75,1.56-2.56,2.38l-.6-14.49c-1.95-1.68-3.76-3.49-5.39-5.42-2.37-2.79-4.36-5.82-5.88-9.04-.87-.07-1.71-.21-2.53-.4l.99,23.77.38,9.05c2.34,1.41,4.47,3.13,6.33,5.09,4.64,4.89,7.57,11.3,7.78,18.23,0,.27.02.54.02.82,0-7.28,3.58-14.38,10.09-20,6.44-5.56,14.71-8.75,22.7-8.75-8.05,0-16.56-2.31-24.19-6.35Z"/><path class="cls-1" d="M68.96,34.01c-.57.37-1.15.7-1.76,1-2.24,1.09-4.75,1.71-7.4,1.71-.47,0-.94-.02-1.4-.06,1.52,3.22,3.51,6.26,5.88,9.04,1.63,1.93,3.44,3.74,5.39,5.42l-.71-17.11Z"/><path class="cls-9" d="M148.4,37.97c-2,2.76-4.33,5.48-6.95,8.1l-1.66,23.75-1.88,26.96s0,.09,0,.13c.02.38.04.75.04,1.13,0,.01,0,.03,0,.04.02-6.14,3.04-13.29,7.88-19.43,2.05-2.6,4.43-5.02,7.05-7.12l1.47-21.03c-2.38-4.04-4.37-8.24-5.95-12.53Z"/><path class="cls-15" d="M148.4,37.97c1.59,4.28,3.58,8.49,5.95,12.53l1.68-24.08c-.47.16-.94.3-1.42.42-1.48,3.72-3.56,7.47-6.22,11.13Z"/><path class="cls-15" d="M152.89,71.53c-2.62,2.09-5,4.51-7.05,7.12-4.85,6.15-7.86,13.29-7.88,19.43,0,.02,0,.05,0,.07,0,2.96,1.95,5.46,4.63,6.29.62.19,1.28.3,1.96.3s1.34-.1,1.96-.3c2.68-.83,4.63-3.34,4.63-6.29,0-.38,0-.76-.02-1.15l1.78-25.47Z"/><path class="cls-8" d="M150.54,27.34c-1.87,0-3.67-.31-5.36-.87-.79-.27-1.56-.59-2.29-.96-.58-.3-1.15-.62-1.69-.98-2.37,4.72-6.16,9.62-10.97,14.06-8.51,7.83-18.51,12.7-26.08,12.7,7.28,0,14.86,2.34,21.87,6.62,4.52-2.56,8.97-5.8,13.13-9.62.79-.73,1.56-1.47,2.3-2.21,2.62-2.62,4.94-5.33,6.95-8.1,2.65-3.66,4.74-7.4,6.22-11.13-1.31.32-2.67.5-4.08.5Z"/><path class="cls-14" d="M59.8,9.37c-5.76,0-10.43,4.67-10.43,10.43,0,3.94,2.19,7.38,5.42,9.15.26.14.52.27.79.39.12.05.24.1.35.15,1.2.48,2.5.74,3.87.74,3.48,0,6.56-1.71,8.46-4.33.11-.15.21-.3.31-.46.01-.02.02-.04.03-.05,1.03-1.62,1.63-3.53,1.63-5.59,0-5.76-4.67-10.43-10.43-10.43Z"/><path class="cls-15" d="M155.17,1.08c.1.76.16,1.53.16,2.32,0,5.1-2.27,9.68-5.85,12.77-.27.23-.54.45-.82.66-.15.12-.31.23-.46.34-1.07.76-2.24,1.4-3.48,1.9,1.66,1.13,3.67,1.79,5.83,1.79s4.32-.71,6.02-1.92c.1-.07.19-.14.29-.21.17-.13.34-.27.5-.41,2.21-1.91,3.62-4.74,3.62-7.89,0-4.1-2.36-7.64-5.8-9.35Z"/><path class="cls-9" d="M148.66,16.83c.28-.21.55-.44.82-.66,3.58-3.09,5.85-7.67,5.85-12.77,0-.79-.06-1.56-.16-2.32-1.39-.69-2.96-1.08-4.63-1.08-5.76,0-10.43,4.67-10.43,10.43,0,3,1.27,5.71,3.3,7.61.05.04.09.09.14.13.2.18.4.35.61.51.18.14.37.27.55.39,1.24-.5,2.41-1.13,3.48-1.9.16-.11.31-.22.46-.34Z"/></g></g></g></svg>