<svg width="39" height="39" viewBox="0 0 39 39" fill="none" xmlns="http://www.w3.org/2000/svg">
<path d="M35.1252 38.2147L21.5334 24.6515C20.5323 25.4767 19.3569 26.122 18.0072 26.5873C16.6579 27.0523 15.2068 27.2848 13.654 27.2848C9.8403 27.2848 6.61111 25.9611 3.96646 23.3137C1.32215 20.6667 0 17.473 0 13.7328C0 9.99251 1.32368 6.79886 3.97105 4.15183C6.61808 1.50447 9.82023 0.180786 13.5775 0.180786C17.3348 0.180786 20.5284 1.50447 23.1584 4.15183C25.7888 6.79886 27.104 9.99506 27.104 13.7404C27.104 15.2364 26.8803 16.6502 26.433 17.9819C25.9854 19.3136 25.3143 20.5651 24.4197 21.7366L38.0625 35.2774L35.1252 38.2147ZM13.6132 23.2428C16.2548 23.2428 18.4899 22.3154 20.3185 20.4605C22.1475 18.6057 23.062 16.3631 23.062 13.7328C23.062 11.1024 22.1462 8.85982 20.3145 7.00499C18.4828 5.15017 16.249 4.22276 13.6132 4.22276C10.9488 4.22276 8.68754 5.15017 6.82931 7.00499C4.97109 8.85982 4.04197 11.1024 4.04197 13.7328C4.04197 16.3631 4.96972 18.6057 6.82523 20.4605C8.68073 22.3154 10.9434 23.2428 13.6132 23.2428Z" fill="#00C1D4"/>
</svg>
